<mxfile modified="2024-06-26T18:13:39.462Z" host="Electron" agent="Mozilla/5.0 (Macintosh; Intel Mac OS X 10_15_7) AppleWebKit/537.36 (KHTML, like Gecko) draw.io/24.6.1 Chrome/124.0.6367.207 Electron/30.0.6 Safari/537.36" etag="IYP3dEKglJJiW0_AOyT8" version="24.6.1" type="device">
  <diagram id="Ht1M8jgEwFfnCIfOTk4-" name="Page-1">
    <mxGraphModel dx="1656" dy="1139" grid="0" gridSize="10" guides="1" tooltips="1" connect="1" arrows="1" fold="1" page="1" pageScale="1" pageWidth="1169" pageHeight="827" math="0" shadow="0">
      <root>
        <mxCell id="0" />
        <mxCell id="1" parent="0" />
        <mxCell id="giLpwNqlkb6RfxS4_c0a-1" value="" style="rounded=1;arcSize=10;dashed=0;fillColor=none;gradientColor=none;strokeWidth=2;" parent="1" vertex="1">
          <mxGeometry x="184" y="250" width="927" height="560" as="geometry" />
        </mxCell>
        <mxCell id="giLpwNqlkb6RfxS4_c0a-27" value="&amp;nbsp; &amp;nbsp; Subnet:&amp;nbsp; 10.10.12.0/22" style="fillColor=none;strokeColor=#5A6C86;dashed=1;verticalAlign=top;fontStyle=0;fontColor=#5A6C86;whiteSpace=wrap;html=1;align=left;strokeWidth=3;" parent="1" vertex="1">
          <mxGeometry x="236" y="317" width="845" height="474" as="geometry" />
        </mxCell>
        <mxCell id="zZqlVJ54U7L3CnaIl7Do-32" value="&lt;b&gt;VMware&lt;/b&gt;" style="outlineConnect=0;html=1;whiteSpace=wrap;fontSize=12;fontStyle=0;strokeColor=#82b366;fillColor=#d5e8d4;verticalAlign=top;align=center;dashed=1;spacingTop=3;" parent="1" vertex="1">
          <mxGeometry x="776" y="474" width="284" height="308" as="geometry" />
        </mxCell>
        <mxCell id="zZqlVJ54U7L3CnaIl7Do-31" value="&lt;b&gt;EKS Anywhere&lt;/b&gt;" style="outlineConnect=0;html=1;whiteSpace=wrap;fontSize=12;fontStyle=0;strokeColor=#6c8ebf;fillColor=#dae8fc;verticalAlign=top;align=center;dashed=1;spacingTop=3;" parent="1" vertex="1">
          <mxGeometry x="249" y="474" width="302" height="308" as="geometry" />
        </mxCell>
        <mxCell id="zZqlVJ54U7L3CnaIl7Do-28" value="" style="verticalLabelPosition=bottom;html=1;verticalAlign=top;strokeWidth=1;align=center;outlineConnect=0;dashed=0;outlineConnect=0;shape=mxgraph.aws3d.ebs;fillColor=#ECECEC;strokeColor=#5E5E5E;aspect=fixed;" parent="1" vertex="1">
          <mxGeometry x="67" y="617" width="64.4" height="42" as="geometry" />
        </mxCell>
        <mxCell id="giLpwNqlkb6RfxS4_c0a-2" value="" style="dashed=0;html=1;shape=mxgraph.aws3.corporate_data_center;fillColor=#7D7C7C;gradientColor=none;dashed=0;" parent="1" vertex="1">
          <mxGeometry x="249" y="247" width="30" height="42" as="geometry" />
        </mxCell>
        <mxCell id="zZqlVJ54U7L3CnaIl7Do-13" value="" style="edgeStyle=orthogonalEdgeStyle;rounded=0;orthogonalLoop=1;jettySize=auto;html=1;endArrow=none;endFill=0;entryX=0.023;entryY=0.851;entryDx=0;entryDy=0;entryPerimeter=0;" parent="1" source="giLpwNqlkb6RfxS4_c0a-4" target="giLpwNqlkb6RfxS4_c0a-21" edge="1">
          <mxGeometry relative="1" as="geometry">
            <mxPoint x="577" y="423" as="targetPoint" />
            <Array as="points">
              <mxPoint x="315" y="627" />
              <mxPoint x="575" y="627" />
              <mxPoint x="575" y="416" />
              <mxPoint x="587" y="416" />
            </Array>
          </mxGeometry>
        </mxCell>
        <mxCell id="giLpwNqlkb6RfxS4_c0a-4" value="eks-mgmt-01" style="verticalLabelPosition=bottom;html=1;verticalAlign=top;strokeWidth=1;align=center;outlineConnect=0;dashed=0;outlineConnect=0;shape=mxgraph.aws3d.dataCenter;strokeColor=#5E5E5E;aspect=fixed;" parent="1" vertex="1">
          <mxGeometry x="276" y="668" width="77.96" height="90" as="geometry" />
        </mxCell>
        <mxCell id="zZqlVJ54U7L3CnaIl7Do-11" value="" style="edgeStyle=orthogonalEdgeStyle;rounded=0;orthogonalLoop=1;jettySize=auto;html=1;endArrow=none;endFill=0;" parent="1" edge="1" target="giLpwNqlkb6RfxS4_c0a-21">
          <mxGeometry relative="1" as="geometry">
            <mxPoint x="408" y="666" as="sourcePoint" />
            <mxPoint x="594" y="409" as="targetPoint" />
            <Array as="points">
              <mxPoint x="408" y="639" />
              <mxPoint x="588" y="639" />
            </Array>
          </mxGeometry>
        </mxCell>
        <mxCell id="giLpwNqlkb6RfxS4_c0a-6" value="eks-mgmt-02" style="verticalLabelPosition=bottom;html=1;verticalAlign=top;strokeWidth=1;align=center;outlineConnect=0;dashed=0;outlineConnect=0;shape=mxgraph.aws3d.dataCenter;strokeColor=#5E5E5E;aspect=fixed;" parent="1" vertex="1">
          <mxGeometry x="360" y="668" width="77.96" height="90" as="geometry" />
        </mxCell>
        <mxCell id="zZqlVJ54U7L3CnaIl7Do-10" value="" style="edgeStyle=orthogonalEdgeStyle;rounded=0;orthogonalLoop=1;jettySize=auto;html=1;endArrow=none;endFill=0;" parent="1" source="giLpwNqlkb6RfxS4_c0a-7" target="giLpwNqlkb6RfxS4_c0a-21" edge="1">
          <mxGeometry relative="1" as="geometry">
            <mxPoint x="575" y="474" as="targetPoint" />
            <Array as="points">
              <mxPoint x="483" y="656" />
              <mxPoint x="597" y="656" />
            </Array>
          </mxGeometry>
        </mxCell>
        <mxCell id="giLpwNqlkb6RfxS4_c0a-7" value="eks-mgmt-03" style="verticalLabelPosition=bottom;html=1;verticalAlign=top;strokeWidth=1;align=center;outlineConnect=0;dashed=0;outlineConnect=0;shape=mxgraph.aws3d.dataCenter;strokeColor=#5E5E5E;aspect=fixed;" parent="1" vertex="1">
          <mxGeometry x="444" y="666" width="77.96" height="90" as="geometry" />
        </mxCell>
        <mxCell id="zZqlVJ54U7L3CnaIl7Do-12" value="" style="edgeStyle=orthogonalEdgeStyle;rounded=0;orthogonalLoop=1;jettySize=auto;html=1;endArrow=none;endFill=0;" parent="1" source="giLpwNqlkb6RfxS4_c0a-9" target="giLpwNqlkb6RfxS4_c0a-21" edge="1">
          <mxGeometry relative="1" as="geometry">
            <mxPoint x="403.385" y="411" as="targetPoint" />
            <Array as="points">
              <mxPoint x="517" y="526" />
              <mxPoint x="517" y="411" />
            </Array>
          </mxGeometry>
        </mxCell>
        <mxCell id="giLpwNqlkb6RfxS4_c0a-9" value="thekubernerd" style="verticalLabelPosition=bottom;html=1;verticalAlign=top;strokeWidth=1;align=center;outlineConnect=0;dashed=0;outlineConnect=0;shape=mxgraph.aws3d.dataServer;strokeColor=#5E5E5E;aspect=fixed;" parent="1" vertex="1">
          <mxGeometry x="362.77" y="512" width="81.23" height="70" as="geometry" />
        </mxCell>
        <mxCell id="bdIBlkpDldWMxM4VtPXu-3" value="" style="edgeStyle=orthogonalEdgeStyle;rounded=0;orthogonalLoop=1;jettySize=auto;html=1;entryX=0.5;entryY=1;entryDx=0;entryDy=0;entryPerimeter=0;" edge="1" parent="1" source="giLpwNqlkb6RfxS4_c0a-21" target="bdIBlkpDldWMxM4VtPXu-1">
          <mxGeometry relative="1" as="geometry">
            <mxPoint x="739.4" y="410.5" as="targetPoint" />
            <Array as="points">
              <mxPoint x="874" y="403" />
            </Array>
          </mxGeometry>
        </mxCell>
        <mxCell id="giLpwNqlkb6RfxS4_c0a-21" value="" style="image;points=[];aspect=fixed;html=1;align=center;shadow=0;dashed=0;image=img/lib/allied_telesis/switch/Switch_24_port_L3.svg;" parent="1" vertex="1">
          <mxGeometry x="585" y="373" width="74.4" height="51" as="geometry" />
        </mxCell>
        <mxCell id="giLpwNqlkb6RfxS4_c0a-32" value="" style="edgeStyle=orthogonalEdgeStyle;rounded=0;orthogonalLoop=1;jettySize=auto;html=1;" parent="1" source="giLpwNqlkb6RfxS4_c0a-26" target="giLpwNqlkb6RfxS4_c0a-29" edge="1">
          <mxGeometry relative="1" as="geometry" />
        </mxCell>
        <mxCell id="giLpwNqlkb6RfxS4_c0a-26" value="" style="image;aspect=fixed;perimeter=ellipsePerimeter;html=1;align=center;shadow=0;dashed=0;spacingTop=3;image=img/lib/active_directory/internet_cloud.svg;" parent="1" vertex="1">
          <mxGeometry x="530" width="280" height="176.4" as="geometry" />
        </mxCell>
        <mxCell id="giLpwNqlkb6RfxS4_c0a-31" value="" style="edgeStyle=orthogonalEdgeStyle;rounded=0;orthogonalLoop=1;jettySize=auto;html=1;endArrow=none;endFill=0;" parent="1" target="giLpwNqlkb6RfxS4_c0a-26" edge="1">
          <mxGeometry relative="1" as="geometry">
            <mxPoint x="670" y="226" as="sourcePoint" />
          </mxGeometry>
        </mxCell>
        <mxCell id="giLpwNqlkb6RfxS4_c0a-29" value="Amazon ECR" style="sketch=0;points=[[0,0,0],[0.25,0,0],[0.5,0,0],[0.75,0,0],[1,0,0],[0,1,0],[0.25,1,0],[0.5,1,0],[0.75,1,0],[1,1,0],[0,0.25,0],[0,0.5,0],[0,0.75,0],[1,0.25,0],[1,0.5,0],[1,0.75,0]];outlineConnect=0;fontColor=#232F3E;fillColor=#ED7100;strokeColor=#ffffff;dashed=0;verticalLabelPosition=bottom;verticalAlign=top;align=center;html=1;fontSize=12;fontStyle=0;aspect=fixed;shape=mxgraph.aws4.resourceIcon;resIcon=mxgraph.aws4.ecr;" parent="1" vertex="1">
          <mxGeometry x="346" y="53.300000000000004" width="69.8" height="69.8" as="geometry" />
        </mxCell>
        <mxCell id="giLpwNqlkb6RfxS4_c0a-30" value="blackmesa" style="image;points=[];aspect=fixed;html=1;align=center;shadow=0;dashed=0;image=img/lib/allied_telesis/computer_and_terminals/Laptop.svg;" parent="1" vertex="1">
          <mxGeometry x="272.09000000000003" y="341" width="85.77" height="87" as="geometry" />
        </mxCell>
        <mxCell id="zZqlVJ54U7L3CnaIl7Do-7" style="edgeStyle=orthogonalEdgeStyle;rounded=0;orthogonalLoop=1;jettySize=auto;html=1;exitX=1;exitY=0.5;exitDx=0;exitDy=0;endArrow=none;endFill=0;" parent="1" source="n6KDSuUHy3L_TARxie_m-1" target="giLpwNqlkb6RfxS4_c0a-21" edge="1">
          <mxGeometry relative="1" as="geometry">
            <Array as="points">
              <mxPoint x="530" y="388" />
              <mxPoint x="530" y="397" />
            </Array>
          </mxGeometry>
        </mxCell>
        <mxCell id="n6KDSuUHy3L_TARxie_m-1" value="airport" style="image;html=1;image=img/lib/clip_art/networking/Wireless_Router_128x128.png" parent="1" vertex="1">
          <mxGeometry x="385" y="348" width="80" height="80" as="geometry" />
        </mxCell>
        <mxCell id="n6KDSuUHy3L_TARxie_m-4" style="edgeStyle=orthogonalEdgeStyle;rounded=0;orthogonalLoop=1;jettySize=auto;html=1;exitX=0.5;exitY=1;exitDx=0;exitDy=0;endArrow=none;endFill=0;" parent="1" source="n6KDSuUHy3L_TARxie_m-2" target="giLpwNqlkb6RfxS4_c0a-21" edge="1">
          <mxGeometry relative="1" as="geometry">
            <Array as="points">
              <mxPoint x="670" y="298" />
              <mxPoint x="630" y="298" />
            </Array>
          </mxGeometry>
        </mxCell>
        <mxCell id="n6KDSuUHy3L_TARxie_m-2" value="" style="image;aspect=fixed;perimeter=ellipsePerimeter;html=1;align=center;shadow=0;dashed=0;spacingTop=3;image=img/lib/active_directory/router.svg;" parent="1" vertex="1">
          <mxGeometry x="625.92" y="218" width="88.16" height="67" as="geometry" />
        </mxCell>
        <mxCell id="zZqlVJ54U7L3CnaIl7Do-14" value="" style="edgeStyle=orthogonalEdgeStyle;rounded=0;orthogonalLoop=1;jettySize=auto;html=1;endArrow=none;endFill=0;" parent="1" source="zZqlVJ54U7L3CnaIl7Do-1" target="giLpwNqlkb6RfxS4_c0a-21" edge="1">
          <mxGeometry relative="1" as="geometry">
            <Array as="points">
              <mxPoint x="611" y="684" />
            </Array>
            <mxPoint x="584" y="474" as="targetPoint" />
          </mxGeometry>
        </mxCell>
        <mxCell id="zZqlVJ54U7L3CnaIl7Do-1" value="truenas" style="verticalLabelPosition=bottom;html=1;verticalAlign=top;strokeWidth=1;align=center;outlineConnect=0;dashed=0;outlineConnect=0;shape=mxgraph.aws3d.dataServer;strokeColor=#5E5E5E;aspect=fixed;" parent="1" vertex="1">
          <mxGeometry x="824" y="649" width="81.23" height="70" as="geometry" />
        </mxCell>
        <mxCell id="zZqlVJ54U7L3CnaIl7Do-4" value="" style="edgeStyle=orthogonalEdgeStyle;rounded=0;orthogonalLoop=1;jettySize=auto;html=1;endArrow=none;endFill=0;dashed=1;" parent="1" source="zZqlVJ54U7L3CnaIl7Do-2" target="zZqlVJ54U7L3CnaIl7Do-3" edge="1">
          <mxGeometry relative="1" as="geometry" />
        </mxCell>
        <mxCell id="zZqlVJ54U7L3CnaIl7Do-2" value="vsphere" style="verticalLabelPosition=bottom;html=1;verticalAlign=top;align=center;strokeColor=none;fillColor=#00BEF2;shape=mxgraph.azure.virtual_machine;" parent="1" vertex="1">
          <mxGeometry x="971" y="542" width="50" height="40" as="geometry" />
        </mxCell>
        <mxCell id="zZqlVJ54U7L3CnaIl7Do-8" value="" style="edgeStyle=orthogonalEdgeStyle;rounded=0;orthogonalLoop=1;jettySize=auto;html=1;endArrow=none;endFill=0;" parent="1" source="zZqlVJ54U7L3CnaIl7Do-3" target="giLpwNqlkb6RfxS4_c0a-21" edge="1">
          <mxGeometry relative="1" as="geometry">
            <mxPoint x="594.2" y="474" as="targetPoint" />
          </mxGeometry>
        </mxCell>
        <mxCell id="zZqlVJ54U7L3CnaIl7Do-3" value="vmw-esx-01" style="verticalLabelPosition=bottom;html=1;verticalAlign=top;strokeWidth=1;align=center;outlineConnect=0;dashed=0;outlineConnect=0;shape=mxgraph.aws3d.dataCenter;strokeColor=#5E5E5E;aspect=fixed;" parent="1" vertex="1">
          <mxGeometry x="825.63" y="517" width="77.96" height="90" as="geometry" />
        </mxCell>
        <mxCell id="zZqlVJ54U7L3CnaIl7Do-15" value="" style="sketch=0;pointerEvents=1;shadow=0;dashed=0;html=1;strokeColor=none;fillColor=#434445;aspect=fixed;labelPosition=center;verticalLabelPosition=bottom;verticalAlign=top;align=center;outlineConnect=0;shape=mxgraph.vvd.keyboard;" parent="1" vertex="1">
          <mxGeometry x="49" y="677.25" width="50" height="35.5" as="geometry" />
        </mxCell>
        <mxCell id="zZqlVJ54U7L3CnaIl7Do-16" value="" style="image;points=[];aspect=fixed;html=1;align=center;shadow=0;dashed=0;image=img/lib/allied_telesis/security/DVS_Surveillance_Monitor.svg;" parent="1" vertex="1">
          <mxGeometry x="82" y="584" width="42" height="60" as="geometry" />
        </mxCell>
        <mxCell id="zZqlVJ54U7L3CnaIl7Do-17" value="" style="sketch=0;pointerEvents=1;shadow=0;dashed=0;html=1;strokeColor=none;fillColor=#434445;aspect=fixed;labelPosition=center;verticalLabelPosition=bottom;verticalAlign=top;align=center;outlineConnect=0;shape=mxgraph.vvd.mouse;" parent="1" vertex="1">
          <mxGeometry x="118" y="670" width="24.5" height="50" as="geometry" />
        </mxCell>
        <mxCell id="zZqlVJ54U7L3CnaIl7Do-29" value="KVM Switch" style="text;html=1;align=center;verticalAlign=middle;whiteSpace=wrap;rounded=0;" parent="1" vertex="1">
          <mxGeometry x="10" y="629" width="60" height="30" as="geometry" />
        </mxCell>
        <mxCell id="bdIBlkpDldWMxM4VtPXu-2" value="" style="edgeStyle=orthogonalEdgeStyle;rounded=0;orthogonalLoop=1;jettySize=auto;html=1;entryX=0.75;entryY=1;entryDx=0;entryDy=0;endArrow=none;endFill=0;" edge="1" parent="1" source="bdIBlkpDldWMxM4VtPXu-1" target="giLpwNqlkb6RfxS4_c0a-26">
          <mxGeometry relative="1" as="geometry">
            <mxPoint x="874" y="149" as="targetPoint" />
            <Array as="points">
              <mxPoint x="874" y="204" />
              <mxPoint x="733" y="204" />
            </Array>
          </mxGeometry>
        </mxCell>
        <mxCell id="bdIBlkpDldWMxM4VtPXu-1" value="5G Wireless Backup" style="sketch=0;points=[[0.5,0,0],[1,0.5,0],[0.5,1,0],[0,0.5,0],[0.145,0.145,0],[0.8555,0.145,0],[0.855,0.8555,0],[0.145,0.855,0]];verticalLabelPosition=bottom;html=1;verticalAlign=top;aspect=fixed;align=center;pointerEvents=1;shape=mxgraph.cisco19.rect;prIcon=wireless_router;fillColor=#FAFAFA;strokeColor=#005073;" vertex="1" parent="1">
          <mxGeometry x="849" y="218" width="50" height="60" as="geometry" />
        </mxCell>
      </root>
    </mxGraphModel>
  </diagram>
</mxfile>
